<mxfile host="Electron" modified="2023-08-16T09:37:55.545Z" agent="Mozilla/5.0 (X11; Linux x86_64) AppleWebKit/537.36 (KHTML, like Gecko) draw.io/21.6.8 Chrome/114.0.5735.289 Electron/25.5.0 Safari/537.36" etag="wfYuF99qtYDNWseB3rkA" version="21.6.8" type="device" pages="2">
  <diagram name="databases" id="TzAQa-NILu_Yfy1bzgQJ">
    <mxGraphModel dx="2524" dy="3077" grid="1" gridSize="10" guides="1" tooltips="1" connect="1" arrows="1" fold="1" page="1" pageScale="1" pageWidth="850" pageHeight="1100" math="0" shadow="0">
      <root>
        <mxCell id="0" />
        <mxCell id="1" parent="0" />
        <mxCell id="bC0zhjqWyyqO718gE63J-9" value="" style="group" parent="1" vertex="1" connectable="0">
          <mxGeometry x="50" y="-160" width="210" height="430" as="geometry" />
        </mxCell>
        <mxCell id="v7u3kTak3ts7paZ74S9U-122" style="edgeStyle=orthogonalEdgeStyle;rounded=0;orthogonalLoop=1;jettySize=auto;html=1;exitX=0;exitY=0.5;exitDx=0;exitDy=0;startArrow=ERoneToMany;startFill=0;endArrow=ERmandOne;endFill=0;" parent="bC0zhjqWyyqO718gE63J-9" edge="1">
          <mxGeometry relative="1" as="geometry">
            <Array as="points">
              <mxPoint y="45" />
              <mxPoint y="420" />
            </Array>
            <mxPoint x="30" y="45" as="sourcePoint" />
          </mxGeometry>
        </mxCell>
        <mxCell id="n42r113-X6p7kZgY_KuU-107" style="edgeStyle=orthogonalEdgeStyle;rounded=0;orthogonalLoop=1;jettySize=auto;html=1;exitX=0;exitY=0.5;exitDx=0;exitDy=0;endArrow=ERzeroToMany;endFill=0;startArrow=ERzeroToOne;startFill=0;" parent="1" source="n42r113-X6p7kZgY_KuU-29" target="n42r113-X6p7kZgY_KuU-95" edge="1">
          <mxGeometry relative="1" as="geometry" />
        </mxCell>
        <mxCell id="n42r113-X6p7kZgY_KuU-108" value="" style="group" parent="1" vertex="1" connectable="0">
          <mxGeometry x="-360" y="-1070" width="550" height="480" as="geometry" />
        </mxCell>
        <mxCell id="n42r113-X6p7kZgY_KuU-15" value="role" style="shape=table;startSize=30;container=1;collapsible=1;childLayout=tableLayout;fixedRows=1;rowLines=0;fontStyle=1;align=center;resizeLast=1;" parent="n42r113-X6p7kZgY_KuU-108" vertex="1">
          <mxGeometry x="61.11111111111111" width="488.88888888888886" height="120" as="geometry" />
        </mxCell>
        <mxCell id="n42r113-X6p7kZgY_KuU-16" value="" style="shape=tableRow;horizontal=0;startSize=0;swimlaneHead=0;swimlaneBody=0;fillColor=none;collapsible=0;dropTarget=0;points=[[0,0.5],[1,0.5]];portConstraint=eastwest;strokeColor=inherit;top=0;left=0;right=0;bottom=1;" parent="n42r113-X6p7kZgY_KuU-15" vertex="1">
          <mxGeometry y="30" width="488.88888888888886" height="30" as="geometry" />
        </mxCell>
        <mxCell id="n42r113-X6p7kZgY_KuU-17" value="PK" style="shape=partialRectangle;overflow=hidden;connectable=0;fillColor=none;strokeColor=inherit;top=0;left=0;bottom=0;right=0;fontStyle=1;" parent="n42r113-X6p7kZgY_KuU-16" vertex="1">
          <mxGeometry width="30" height="30" as="geometry">
            <mxRectangle width="30" height="30" as="alternateBounds" />
          </mxGeometry>
        </mxCell>
        <mxCell id="n42r113-X6p7kZgY_KuU-18" value="role_id INT  GENERATED ALWAYS AS IDENTITY" style="shape=partialRectangle;overflow=hidden;connectable=0;fillColor=none;align=left;strokeColor=inherit;top=0;left=0;bottom=0;right=0;spacingLeft=6;fontStyle=5;" parent="n42r113-X6p7kZgY_KuU-16" vertex="1">
          <mxGeometry x="30" width="458.88888888888886" height="30" as="geometry">
            <mxRectangle width="458.88888888888886" height="30" as="alternateBounds" />
          </mxGeometry>
        </mxCell>
        <mxCell id="n42r113-X6p7kZgY_KuU-19" value="" style="shape=tableRow;horizontal=0;startSize=0;swimlaneHead=0;swimlaneBody=0;fillColor=none;collapsible=0;dropTarget=0;points=[[0,0.5],[1,0.5]];portConstraint=eastwest;strokeColor=inherit;top=0;left=0;right=0;bottom=0;" parent="n42r113-X6p7kZgY_KuU-15" vertex="1">
          <mxGeometry y="60" width="488.88888888888886" height="30" as="geometry" />
        </mxCell>
        <mxCell id="n42r113-X6p7kZgY_KuU-20" value="" style="shape=partialRectangle;overflow=hidden;connectable=0;fillColor=none;strokeColor=inherit;top=0;left=0;bottom=0;right=0;" parent="n42r113-X6p7kZgY_KuU-19" vertex="1">
          <mxGeometry width="30" height="30" as="geometry">
            <mxRectangle width="30" height="30" as="alternateBounds" />
          </mxGeometry>
        </mxCell>
        <mxCell id="n42r113-X6p7kZgY_KuU-21" value="role_name VARCHAR(50) NOT NULL" style="shape=partialRectangle;overflow=hidden;connectable=0;fillColor=none;align=left;strokeColor=inherit;top=0;left=0;bottom=0;right=0;spacingLeft=6;" parent="n42r113-X6p7kZgY_KuU-19" vertex="1">
          <mxGeometry x="30" width="458.88888888888886" height="30" as="geometry">
            <mxRectangle width="458.88888888888886" height="30" as="alternateBounds" />
          </mxGeometry>
        </mxCell>
        <mxCell id="n42r113-X6p7kZgY_KuU-22" value="" style="shape=tableRow;horizontal=0;startSize=0;swimlaneHead=0;swimlaneBody=0;fillColor=none;collapsible=0;dropTarget=0;points=[[0,0.5],[1,0.5]];portConstraint=eastwest;strokeColor=inherit;top=0;left=0;right=0;bottom=0;" parent="n42r113-X6p7kZgY_KuU-15" vertex="1">
          <mxGeometry y="90" width="488.88888888888886" height="30" as="geometry" />
        </mxCell>
        <mxCell id="n42r113-X6p7kZgY_KuU-23" value="" style="shape=partialRectangle;overflow=hidden;connectable=0;fillColor=none;strokeColor=inherit;top=0;left=0;bottom=0;right=0;" parent="n42r113-X6p7kZgY_KuU-22" vertex="1">
          <mxGeometry width="30" height="30" as="geometry">
            <mxRectangle width="30" height="30" as="alternateBounds" />
          </mxGeometry>
        </mxCell>
        <mxCell id="n42r113-X6p7kZgY_KuU-24" value="grant_date TIMESTAMP DEFAULT(CURRENT_TIMESTAMP(0)) NULL" style="shape=partialRectangle;overflow=hidden;connectable=0;fillColor=none;align=left;strokeColor=inherit;top=0;left=0;bottom=0;right=0;spacingLeft=6;" parent="n42r113-X6p7kZgY_KuU-22" vertex="1">
          <mxGeometry x="30" width="458.88888888888886" height="30" as="geometry">
            <mxRectangle width="458.88888888888886" height="30" as="alternateBounds" />
          </mxGeometry>
        </mxCell>
        <mxCell id="n42r113-X6p7kZgY_KuU-68" value="account" style="shape=table;startSize=30;container=1;collapsible=1;childLayout=tableLayout;fixedRows=1;rowLines=0;fontStyle=1;align=center;resizeLast=1;" parent="n42r113-X6p7kZgY_KuU-108" vertex="1">
          <mxGeometry x="61.11111111111111" y="240" width="488.88888888888886" height="330" as="geometry" />
        </mxCell>
        <mxCell id="n42r113-X6p7kZgY_KuU-75" value="" style="shape=tableRow;horizontal=0;startSize=0;swimlaneHead=0;swimlaneBody=0;fillColor=none;collapsible=0;dropTarget=0;points=[[0,0.5],[1,0.5]];portConstraint=eastwest;strokeColor=inherit;top=0;left=0;right=0;bottom=1;" parent="n42r113-X6p7kZgY_KuU-68" vertex="1">
          <mxGeometry y="30" width="488.88888888888886" height="30" as="geometry" />
        </mxCell>
        <mxCell id="n42r113-X6p7kZgY_KuU-76" value="PK" style="shape=partialRectangle;overflow=hidden;connectable=0;fillColor=none;strokeColor=inherit;top=0;left=0;bottom=0;right=0;fontStyle=1;" parent="n42r113-X6p7kZgY_KuU-75" vertex="1">
          <mxGeometry width="30" height="30" as="geometry">
            <mxRectangle width="30" height="30" as="alternateBounds" />
          </mxGeometry>
        </mxCell>
        <mxCell id="n42r113-X6p7kZgY_KuU-77" value="account_id INT  GENERATED ALWAYS AS IDENTITY" style="shape=partialRectangle;overflow=hidden;connectable=0;fillColor=none;align=left;strokeColor=inherit;top=0;left=0;bottom=0;right=0;spacingLeft=6;fontStyle=5;" parent="n42r113-X6p7kZgY_KuU-75" vertex="1">
          <mxGeometry x="30" width="458.88888888888886" height="30" as="geometry">
            <mxRectangle width="458.88888888888886" height="30" as="alternateBounds" />
          </mxGeometry>
        </mxCell>
        <mxCell id="n42r113-X6p7kZgY_KuU-95" value="" style="shape=tableRow;horizontal=0;startSize=0;swimlaneHead=0;swimlaneBody=0;fillColor=none;collapsible=0;dropTarget=0;points=[[0,0.5],[1,0.5]];portConstraint=eastwest;strokeColor=inherit;top=0;left=0;right=0;bottom=1;" parent="n42r113-X6p7kZgY_KuU-68" vertex="1">
          <mxGeometry y="60" width="488.88888888888886" height="30" as="geometry" />
        </mxCell>
        <mxCell id="n42r113-X6p7kZgY_KuU-96" value="FK" style="shape=partialRectangle;overflow=hidden;connectable=0;fillColor=none;strokeColor=inherit;top=0;left=0;bottom=0;right=0;fontStyle=0;" parent="n42r113-X6p7kZgY_KuU-95" vertex="1">
          <mxGeometry width="30" height="30" as="geometry">
            <mxRectangle width="30" height="30" as="alternateBounds" />
          </mxGeometry>
        </mxCell>
        <mxCell id="n42r113-X6p7kZgY_KuU-97" value="room_id INT NULL REFERENCES room(room_id)" style="shape=partialRectangle;overflow=hidden;connectable=0;fillColor=none;align=left;strokeColor=inherit;top=0;left=0;bottom=0;right=0;spacingLeft=6;fontStyle=0;" parent="n42r113-X6p7kZgY_KuU-95" vertex="1">
          <mxGeometry x="30" width="458.88888888888886" height="30" as="geometry">
            <mxRectangle width="458.88888888888886" height="30" as="alternateBounds" />
          </mxGeometry>
        </mxCell>
        <mxCell id="n42r113-X6p7kZgY_KuU-78" value="" style="shape=tableRow;horizontal=0;startSize=0;swimlaneHead=0;swimlaneBody=0;fillColor=none;collapsible=0;dropTarget=0;points=[[0,0.5],[1,0.5]];portConstraint=eastwest;strokeColor=inherit;top=0;left=0;right=0;bottom=0;" parent="n42r113-X6p7kZgY_KuU-68" vertex="1">
          <mxGeometry y="90" width="488.88888888888886" height="30" as="geometry" />
        </mxCell>
        <mxCell id="n42r113-X6p7kZgY_KuU-79" value="" style="shape=partialRectangle;overflow=hidden;connectable=0;fillColor=none;strokeColor=inherit;top=0;left=0;bottom=0;right=0;" parent="n42r113-X6p7kZgY_KuU-78" vertex="1">
          <mxGeometry width="30" height="30" as="geometry">
            <mxRectangle width="30" height="30" as="alternateBounds" />
          </mxGeometry>
        </mxCell>
        <mxCell id="n42r113-X6p7kZgY_KuU-80" value="user_name VARCHAR(512) UNIQUE NOT NULL" style="shape=partialRectangle;overflow=hidden;connectable=0;fillColor=none;align=left;strokeColor=inherit;top=0;left=0;bottom=0;right=0;spacingLeft=6;" parent="n42r113-X6p7kZgY_KuU-78" vertex="1">
          <mxGeometry x="30" width="458.88888888888886" height="30" as="geometry">
            <mxRectangle width="458.88888888888886" height="30" as="alternateBounds" />
          </mxGeometry>
        </mxCell>
        <mxCell id="C5GUmwxqGNt791xSB7eS-1" value="" style="shape=tableRow;horizontal=0;startSize=0;swimlaneHead=0;swimlaneBody=0;fillColor=none;collapsible=0;dropTarget=0;points=[[0,0.5],[1,0.5]];portConstraint=eastwest;strokeColor=inherit;top=0;left=0;right=0;bottom=0;" vertex="1" parent="n42r113-X6p7kZgY_KuU-68">
          <mxGeometry y="120" width="488.88888888888886" height="30" as="geometry" />
        </mxCell>
        <mxCell id="C5GUmwxqGNt791xSB7eS-2" value="" style="shape=partialRectangle;overflow=hidden;connectable=0;fillColor=none;strokeColor=inherit;top=0;left=0;bottom=0;right=0;" vertex="1" parent="C5GUmwxqGNt791xSB7eS-1">
          <mxGeometry width="30" height="30" as="geometry">
            <mxRectangle width="30" height="30" as="alternateBounds" />
          </mxGeometry>
        </mxCell>
        <mxCell id="C5GUmwxqGNt791xSB7eS-3" value="cid VARCHAR(50) DEFAULT(&#39;&#39;) NOT NULL" style="shape=partialRectangle;overflow=hidden;connectable=0;fillColor=none;align=left;strokeColor=inherit;top=0;left=0;bottom=0;right=0;spacingLeft=6;" vertex="1" parent="C5GUmwxqGNt791xSB7eS-1">
          <mxGeometry x="30" width="458.88888888888886" height="30" as="geometry">
            <mxRectangle width="458.88888888888886" height="30" as="alternateBounds" />
          </mxGeometry>
        </mxCell>
        <mxCell id="C5GUmwxqGNt791xSB7eS-4" value="" style="shape=tableRow;horizontal=0;startSize=0;swimlaneHead=0;swimlaneBody=0;fillColor=none;collapsible=0;dropTarget=0;points=[[0,0.5],[1,0.5]];portConstraint=eastwest;strokeColor=inherit;top=0;left=0;right=0;bottom=0;" vertex="1" parent="n42r113-X6p7kZgY_KuU-68">
          <mxGeometry y="150" width="488.88888888888886" height="30" as="geometry" />
        </mxCell>
        <mxCell id="C5GUmwxqGNt791xSB7eS-5" value="" style="shape=partialRectangle;overflow=hidden;connectable=0;fillColor=none;strokeColor=inherit;top=0;left=0;bottom=0;right=0;" vertex="1" parent="C5GUmwxqGNt791xSB7eS-4">
          <mxGeometry width="30" height="30" as="geometry">
            <mxRectangle width="30" height="30" as="alternateBounds" />
          </mxGeometry>
        </mxCell>
        <mxCell id="C5GUmwxqGNt791xSB7eS-6" value="driver_license VARCHAR(50) DEFAULT(&#39;&#39;) NOT NULL" style="shape=partialRectangle;overflow=hidden;connectable=0;fillColor=none;align=left;strokeColor=inherit;top=0;left=0;bottom=0;right=0;spacingLeft=6;" vertex="1" parent="C5GUmwxqGNt791xSB7eS-4">
          <mxGeometry x="30" width="458.88888888888886" height="30" as="geometry">
            <mxRectangle width="458.88888888888886" height="30" as="alternateBounds" />
          </mxGeometry>
        </mxCell>
        <mxCell id="C5GUmwxqGNt791xSB7eS-7" value="" style="shape=tableRow;horizontal=0;startSize=0;swimlaneHead=0;swimlaneBody=0;fillColor=none;collapsible=0;dropTarget=0;points=[[0,0.5],[1,0.5]];portConstraint=eastwest;strokeColor=inherit;top=0;left=0;right=0;bottom=0;" vertex="1" parent="n42r113-X6p7kZgY_KuU-68">
          <mxGeometry y="180" width="488.88888888888886" height="30" as="geometry" />
        </mxCell>
        <mxCell id="C5GUmwxqGNt791xSB7eS-8" value="" style="shape=partialRectangle;overflow=hidden;connectable=0;fillColor=none;strokeColor=inherit;top=0;left=0;bottom=0;right=0;" vertex="1" parent="C5GUmwxqGNt791xSB7eS-7">
          <mxGeometry width="30" height="30" as="geometry">
            <mxRectangle width="30" height="30" as="alternateBounds" />
          </mxGeometry>
        </mxCell>
        <mxCell id="C5GUmwxqGNt791xSB7eS-9" value="phone VARCHAR(50) DEFAULT(&#39;&#39;) NOT NULL" style="shape=partialRectangle;overflow=hidden;connectable=0;fillColor=none;align=left;strokeColor=inherit;top=0;left=0;bottom=0;right=0;spacingLeft=6;" vertex="1" parent="C5GUmwxqGNt791xSB7eS-7">
          <mxGeometry x="30" width="458.88888888888886" height="30" as="geometry">
            <mxRectangle width="458.88888888888886" height="30" as="alternateBounds" />
          </mxGeometry>
        </mxCell>
        <mxCell id="n42r113-X6p7kZgY_KuU-81" value="" style="shape=tableRow;horizontal=0;startSize=0;swimlaneHead=0;swimlaneBody=0;fillColor=none;collapsible=0;dropTarget=0;points=[[0,0.5],[1,0.5]];portConstraint=eastwest;strokeColor=inherit;top=0;left=0;right=0;bottom=0;" parent="n42r113-X6p7kZgY_KuU-68" vertex="1">
          <mxGeometry y="210" width="488.88888888888886" height="30" as="geometry" />
        </mxCell>
        <mxCell id="n42r113-X6p7kZgY_KuU-82" value="" style="shape=partialRectangle;overflow=hidden;connectable=0;fillColor=none;strokeColor=inherit;top=0;left=0;bottom=0;right=0;" parent="n42r113-X6p7kZgY_KuU-81" vertex="1">
          <mxGeometry width="30" height="30" as="geometry">
            <mxRectangle width="30" height="30" as="alternateBounds" />
          </mxGeometry>
        </mxCell>
        <mxCell id="n42r113-X6p7kZgY_KuU-83" value="password VARCHAR(1024) NOT NULL" style="shape=partialRectangle;overflow=hidden;connectable=0;fillColor=none;align=left;strokeColor=inherit;top=0;left=0;bottom=0;right=0;spacingLeft=6;" parent="n42r113-X6p7kZgY_KuU-81" vertex="1">
          <mxGeometry x="30" width="458.88888888888886" height="30" as="geometry">
            <mxRectangle width="458.88888888888886" height="30" as="alternateBounds" />
          </mxGeometry>
        </mxCell>
        <mxCell id="n42r113-X6p7kZgY_KuU-84" value="" style="shape=tableRow;horizontal=0;startSize=0;swimlaneHead=0;swimlaneBody=0;fillColor=none;collapsible=0;dropTarget=0;points=[[0,0.5],[1,0.5]];portConstraint=eastwest;strokeColor=inherit;top=0;left=0;right=0;bottom=0;" parent="n42r113-X6p7kZgY_KuU-68" vertex="1">
          <mxGeometry y="240" width="488.88888888888886" height="30" as="geometry" />
        </mxCell>
        <mxCell id="n42r113-X6p7kZgY_KuU-85" value="" style="shape=partialRectangle;overflow=hidden;connectable=0;fillColor=none;strokeColor=inherit;top=0;left=0;bottom=0;right=0;" parent="n42r113-X6p7kZgY_KuU-84" vertex="1">
          <mxGeometry width="30" height="30" as="geometry">
            <mxRectangle width="30" height="30" as="alternateBounds" />
          </mxGeometry>
        </mxCell>
        <mxCell id="n42r113-X6p7kZgY_KuU-86" value="email VARCHAR(255) UNIQUE NOT NULL" style="shape=partialRectangle;overflow=hidden;connectable=0;fillColor=none;align=left;strokeColor=inherit;top=0;left=0;bottom=0;right=0;spacingLeft=6;" parent="n42r113-X6p7kZgY_KuU-84" vertex="1">
          <mxGeometry x="30" width="458.88888888888886" height="30" as="geometry">
            <mxRectangle width="458.88888888888886" height="30" as="alternateBounds" />
          </mxGeometry>
        </mxCell>
        <mxCell id="n42r113-X6p7kZgY_KuU-87" value="" style="shape=tableRow;horizontal=0;startSize=0;swimlaneHead=0;swimlaneBody=0;fillColor=none;collapsible=0;dropTarget=0;points=[[0,0.5],[1,0.5]];portConstraint=eastwest;strokeColor=inherit;top=0;left=0;right=0;bottom=0;" parent="n42r113-X6p7kZgY_KuU-68" vertex="1">
          <mxGeometry y="270" width="488.88888888888886" height="30" as="geometry" />
        </mxCell>
        <mxCell id="n42r113-X6p7kZgY_KuU-88" value="" style="shape=partialRectangle;overflow=hidden;connectable=0;fillColor=none;strokeColor=inherit;top=0;left=0;bottom=0;right=0;" parent="n42r113-X6p7kZgY_KuU-87" vertex="1">
          <mxGeometry width="30" height="30" as="geometry">
            <mxRectangle width="30" height="30" as="alternateBounds" />
          </mxGeometry>
        </mxCell>
        <mxCell id="n42r113-X6p7kZgY_KuU-89" value="created_on TIMESTAMP DEFAULT(CURRENT_TIMESTAMP(0)) NOT NULL" style="shape=partialRectangle;overflow=hidden;connectable=0;fillColor=none;align=left;strokeColor=inherit;top=0;left=0;bottom=0;right=0;spacingLeft=6;" parent="n42r113-X6p7kZgY_KuU-87" vertex="1">
          <mxGeometry x="30" width="458.88888888888886" height="30" as="geometry">
            <mxRectangle width="458.88888888888886" height="30" as="alternateBounds" />
          </mxGeometry>
        </mxCell>
        <mxCell id="n42r113-X6p7kZgY_KuU-90" value="" style="shape=tableRow;horizontal=0;startSize=0;swimlaneHead=0;swimlaneBody=0;fillColor=none;collapsible=0;dropTarget=0;points=[[0,0.5],[1,0.5]];portConstraint=eastwest;strokeColor=inherit;top=0;left=0;right=0;bottom=0;" parent="n42r113-X6p7kZgY_KuU-68" vertex="1">
          <mxGeometry y="300" width="488.88888888888886" height="30" as="geometry" />
        </mxCell>
        <mxCell id="n42r113-X6p7kZgY_KuU-91" value="" style="shape=partialRectangle;overflow=hidden;connectable=0;fillColor=none;strokeColor=inherit;top=0;left=0;bottom=0;right=0;" parent="n42r113-X6p7kZgY_KuU-90" vertex="1">
          <mxGeometry width="30" height="30" as="geometry">
            <mxRectangle width="30" height="30" as="alternateBounds" />
          </mxGeometry>
        </mxCell>
        <mxCell id="n42r113-X6p7kZgY_KuU-92" value="last_login TIMESTAMP DEFAULT(CURRENT_TIMESTAMP(0)) NOT NULL" style="shape=partialRectangle;overflow=hidden;connectable=0;fillColor=none;align=left;strokeColor=inherit;top=0;left=0;bottom=0;right=0;spacingLeft=6;" parent="n42r113-X6p7kZgY_KuU-90" vertex="1">
          <mxGeometry x="30" width="458.88888888888886" height="30" as="geometry">
            <mxRectangle width="458.88888888888886" height="30" as="alternateBounds" />
          </mxGeometry>
        </mxCell>
        <mxCell id="n42r113-X6p7kZgY_KuU-104" style="edgeStyle=orthogonalEdgeStyle;rounded=0;orthogonalLoop=1;jettySize=auto;html=1;exitX=0;exitY=0.5;exitDx=0;exitDy=0;entryX=0;entryY=0.5;entryDx=0;entryDy=0;startArrow=ERoneToMany;startFill=0;endArrow=ERoneToMany;endFill=0;" parent="n42r113-X6p7kZgY_KuU-108" source="n42r113-X6p7kZgY_KuU-16" target="n42r113-X6p7kZgY_KuU-75" edge="1">
          <mxGeometry relative="1" as="geometry">
            <Array as="points">
              <mxPoint y="45" />
              <mxPoint y="285" />
            </Array>
          </mxGeometry>
        </mxCell>
        <mxCell id="RQugcnWNFCN3xo5n-kTe-29" style="edgeStyle=orthogonalEdgeStyle;rounded=0;orthogonalLoop=1;jettySize=auto;html=1;exitX=1;exitY=0.5;exitDx=0;exitDy=0;entryX=0;entryY=0.5;entryDx=0;entryDy=0;startArrow=ERzeroToMany;startFill=0;endArrow=ERone;endFill=0;" parent="1" source="n42r113-X6p7kZgY_KuU-75" target="RQugcnWNFCN3xo5n-kTe-5" edge="1">
          <mxGeometry relative="1" as="geometry" />
        </mxCell>
        <mxCell id="n42r113-X6p7kZgY_KuU-8" value="flow" style="shape=table;startSize=30;container=1;collapsible=1;childLayout=tableLayout;fixedRows=1;rowLines=0;fontStyle=1;align=center;resizeLast=1;" parent="1" vertex="1">
          <mxGeometry x="-300" y="-452" width="490" height="90" as="geometry" />
        </mxCell>
        <mxCell id="n42r113-X6p7kZgY_KuU-9" value="" style="shape=tableRow;horizontal=0;startSize=0;swimlaneHead=0;swimlaneBody=0;fillColor=none;collapsible=0;dropTarget=0;points=[[0,0.5],[1,0.5]];portConstraint=eastwest;strokeColor=inherit;top=0;left=0;right=0;bottom=1;" parent="n42r113-X6p7kZgY_KuU-8" vertex="1">
          <mxGeometry y="30" width="490" height="30" as="geometry" />
        </mxCell>
        <mxCell id="n42r113-X6p7kZgY_KuU-10" value="PK" style="shape=partialRectangle;overflow=hidden;connectable=0;fillColor=none;strokeColor=inherit;top=0;left=0;bottom=0;right=0;fontStyle=1;" parent="n42r113-X6p7kZgY_KuU-9" vertex="1">
          <mxGeometry width="30" height="30" as="geometry">
            <mxRectangle width="30" height="30" as="alternateBounds" />
          </mxGeometry>
        </mxCell>
        <mxCell id="n42r113-X6p7kZgY_KuU-11" value="flow_id INT  GENERATED ALWAYS AS IDENTITY" style="shape=partialRectangle;overflow=hidden;connectable=0;fillColor=none;align=left;strokeColor=inherit;top=0;left=0;bottom=0;right=0;spacingLeft=6;fontStyle=5;" parent="n42r113-X6p7kZgY_KuU-9" vertex="1">
          <mxGeometry x="30" width="460" height="30" as="geometry">
            <mxRectangle width="460" height="30" as="alternateBounds" />
          </mxGeometry>
        </mxCell>
        <mxCell id="n42r113-X6p7kZgY_KuU-12" value="" style="shape=tableRow;horizontal=0;startSize=0;swimlaneHead=0;swimlaneBody=0;fillColor=none;collapsible=0;dropTarget=0;points=[[0,0.5],[1,0.5]];portConstraint=eastwest;strokeColor=inherit;top=0;left=0;right=0;bottom=0;" parent="n42r113-X6p7kZgY_KuU-8" vertex="1">
          <mxGeometry y="60" width="490" height="30" as="geometry" />
        </mxCell>
        <mxCell id="n42r113-X6p7kZgY_KuU-13" value="" style="shape=partialRectangle;overflow=hidden;connectable=0;fillColor=none;strokeColor=inherit;top=0;left=0;bottom=0;right=0;" parent="n42r113-X6p7kZgY_KuU-12" vertex="1">
          <mxGeometry width="30" height="30" as="geometry">
            <mxRectangle width="30" height="30" as="alternateBounds" />
          </mxGeometry>
        </mxCell>
        <mxCell id="n42r113-X6p7kZgY_KuU-14" value="flow_name VARCHAR(50) NOT NULL UNIQUE" style="shape=partialRectangle;overflow=hidden;connectable=0;fillColor=none;align=left;strokeColor=inherit;top=0;left=0;bottom=0;right=0;spacingLeft=6;" parent="n42r113-X6p7kZgY_KuU-12" vertex="1">
          <mxGeometry x="30" width="460" height="30" as="geometry">
            <mxRectangle width="460" height="30" as="alternateBounds" />
          </mxGeometry>
        </mxCell>
        <mxCell id="RQugcnWNFCN3xo5n-kTe-31" style="edgeStyle=orthogonalEdgeStyle;rounded=0;orthogonalLoop=1;jettySize=auto;html=1;exitX=0;exitY=0.5;exitDx=0;exitDy=0;startArrow=ERzeroToMany;startFill=0;endArrow=ERzeroToOne;endFill=0;" parent="1" source="n42r113-X6p7kZgY_KuU-101" target="n42r113-X6p7kZgY_KuU-9" edge="1">
          <mxGeometry relative="1" as="geometry" />
        </mxCell>
        <mxCell id="C5GUmwxqGNt791xSB7eS-11" value="" style="group" vertex="1" connectable="0" parent="1">
          <mxGeometry x="326" y="-1120" width="590" height="770" as="geometry" />
        </mxCell>
        <mxCell id="n42r113-X6p7kZgY_KuU-111" value="" style="group" parent="C5GUmwxqGNt791xSB7eS-11" vertex="1" connectable="0">
          <mxGeometry y="80" width="574.0540540540541" height="690" as="geometry" />
        </mxCell>
        <mxCell id="n42r113-X6p7kZgY_KuU-25" value="room" style="shape=table;startSize=30;container=1;collapsible=1;childLayout=tableLayout;fixedRows=1;rowLines=0;fontStyle=1;align=center;resizeLast=1;" parent="n42r113-X6p7kZgY_KuU-111" vertex="1">
          <mxGeometry y="240" width="510.2702702702704" height="630" as="geometry" />
        </mxCell>
        <mxCell id="n42r113-X6p7kZgY_KuU-29" value="" style="shape=tableRow;horizontal=0;startSize=0;swimlaneHead=0;swimlaneBody=0;fillColor=none;collapsible=0;dropTarget=0;points=[[0,0.5],[1,0.5]];portConstraint=eastwest;strokeColor=inherit;top=0;left=0;right=0;bottom=1;" parent="n42r113-X6p7kZgY_KuU-25" vertex="1">
          <mxGeometry y="30" width="510.2702702702704" height="30" as="geometry" />
        </mxCell>
        <mxCell id="n42r113-X6p7kZgY_KuU-30" value="PK" style="shape=partialRectangle;overflow=hidden;connectable=0;fillColor=none;strokeColor=inherit;top=0;left=0;bottom=0;right=0;fontStyle=1;" parent="n42r113-X6p7kZgY_KuU-29" vertex="1">
          <mxGeometry width="30" height="30" as="geometry">
            <mxRectangle width="30" height="30" as="alternateBounds" />
          </mxGeometry>
        </mxCell>
        <mxCell id="n42r113-X6p7kZgY_KuU-31" value="room_id INT  GENERATED ALWAYS AS IDENTITY" style="shape=partialRectangle;overflow=hidden;connectable=0;fillColor=none;align=left;strokeColor=inherit;top=0;left=0;bottom=0;right=0;spacingLeft=6;fontStyle=5;" parent="n42r113-X6p7kZgY_KuU-29" vertex="1">
          <mxGeometry x="30" width="480.2702702702704" height="30" as="geometry">
            <mxRectangle width="480.2702702702704" height="30" as="alternateBounds" />
          </mxGeometry>
        </mxCell>
        <mxCell id="n42r113-X6p7kZgY_KuU-101" value="" style="shape=tableRow;horizontal=0;startSize=0;swimlaneHead=0;swimlaneBody=0;fillColor=none;collapsible=0;dropTarget=0;points=[[0,0.5],[1,0.5]];portConstraint=eastwest;strokeColor=inherit;top=0;left=0;right=0;bottom=1;" parent="n42r113-X6p7kZgY_KuU-25" vertex="1">
          <mxGeometry y="60" width="510.2702702702704" height="30" as="geometry" />
        </mxCell>
        <mxCell id="n42r113-X6p7kZgY_KuU-102" value="FK" style="shape=partialRectangle;overflow=hidden;connectable=0;fillColor=none;strokeColor=inherit;top=0;left=0;bottom=0;right=0;fontStyle=0;" parent="n42r113-X6p7kZgY_KuU-101" vertex="1">
          <mxGeometry width="30" height="30" as="geometry">
            <mxRectangle width="30" height="30" as="alternateBounds" />
          </mxGeometry>
        </mxCell>
        <mxCell id="n42r113-X6p7kZgY_KuU-103" value="flow_id INT NULL REFERENCES flow(flow_id)" style="shape=partialRectangle;overflow=hidden;connectable=0;fillColor=none;align=left;strokeColor=inherit;top=0;left=0;bottom=0;right=0;spacingLeft=6;fontStyle=0;" parent="n42r113-X6p7kZgY_KuU-101" vertex="1">
          <mxGeometry x="30" width="480.2702702702704" height="30" as="geometry">
            <mxRectangle width="480.2702702702704" height="30" as="alternateBounds" />
          </mxGeometry>
        </mxCell>
        <mxCell id="n42r113-X6p7kZgY_KuU-32" value="" style="shape=tableRow;horizontal=0;startSize=0;swimlaneHead=0;swimlaneBody=0;fillColor=none;collapsible=0;dropTarget=0;points=[[0,0.5],[1,0.5]];portConstraint=eastwest;strokeColor=inherit;top=0;left=0;right=0;bottom=0;" parent="n42r113-X6p7kZgY_KuU-25" vertex="1">
          <mxGeometry y="90" width="510.2702702702704" height="30" as="geometry" />
        </mxCell>
        <mxCell id="n42r113-X6p7kZgY_KuU-33" value="" style="shape=partialRectangle;overflow=hidden;connectable=0;fillColor=none;strokeColor=inherit;top=0;left=0;bottom=0;right=0;" parent="n42r113-X6p7kZgY_KuU-32" vertex="1">
          <mxGeometry width="30" height="30" as="geometry">
            <mxRectangle width="30" height="30" as="alternateBounds" />
          </mxGeometry>
        </mxCell>
        <mxCell id="n42r113-X6p7kZgY_KuU-34" value="area VARCHAR(50) DEFAULT(&#39;&#39;) NOT NULL" style="shape=partialRectangle;overflow=hidden;connectable=0;fillColor=none;align=left;strokeColor=inherit;top=0;left=0;bottom=0;right=0;spacingLeft=6;" parent="n42r113-X6p7kZgY_KuU-32" vertex="1">
          <mxGeometry x="30" width="480.2702702702704" height="30" as="geometry">
            <mxRectangle width="480.2702702702704" height="30" as="alternateBounds" />
          </mxGeometry>
        </mxCell>
        <mxCell id="7kSIL3MKawzkHea8jOHg-1" value="" style="shape=tableRow;horizontal=0;startSize=0;swimlaneHead=0;swimlaneBody=0;fillColor=none;collapsible=0;dropTarget=0;points=[[0,0.5],[1,0.5]];portConstraint=eastwest;strokeColor=inherit;top=0;left=0;right=0;bottom=0;" parent="n42r113-X6p7kZgY_KuU-25" vertex="1">
          <mxGeometry y="120" width="510.2702702702704" height="30" as="geometry" />
        </mxCell>
        <mxCell id="7kSIL3MKawzkHea8jOHg-2" value="" style="shape=partialRectangle;overflow=hidden;connectable=0;fillColor=none;strokeColor=inherit;top=0;left=0;bottom=0;right=0;" parent="7kSIL3MKawzkHea8jOHg-1" vertex="1">
          <mxGeometry width="30" height="30" as="geometry">
            <mxRectangle width="30" height="30" as="alternateBounds" />
          </mxGeometry>
        </mxCell>
        <mxCell id="7kSIL3MKawzkHea8jOHg-3" value="status_room INT DEFAULT(-1) NOT NULL" style="shape=partialRectangle;overflow=hidden;connectable=0;fillColor=none;align=left;strokeColor=inherit;top=0;left=0;bottom=0;right=0;spacingLeft=6;" parent="7kSIL3MKawzkHea8jOHg-1" vertex="1">
          <mxGeometry x="30" width="480.2702702702704" height="30" as="geometry">
            <mxRectangle width="480.2702702702704" height="30" as="alternateBounds" />
          </mxGeometry>
        </mxCell>
        <mxCell id="XamEE2_Ijo0PEIDURvpw-1" value="" style="shape=tableRow;horizontal=0;startSize=0;swimlaneHead=0;swimlaneBody=0;fillColor=none;collapsible=0;dropTarget=0;points=[[0,0.5],[1,0.5]];portConstraint=eastwest;strokeColor=inherit;top=0;left=0;right=0;bottom=0;" parent="n42r113-X6p7kZgY_KuU-25" vertex="1">
          <mxGeometry y="150" width="510.2702702702704" height="30" as="geometry" />
        </mxCell>
        <mxCell id="XamEE2_Ijo0PEIDURvpw-2" value="" style="shape=partialRectangle;overflow=hidden;connectable=0;fillColor=none;strokeColor=inherit;top=0;left=0;bottom=0;right=0;" parent="XamEE2_Ijo0PEIDURvpw-1" vertex="1">
          <mxGeometry width="30" height="30" as="geometry">
            <mxRectangle width="30" height="30" as="alternateBounds" />
          </mxGeometry>
        </mxCell>
        <mxCell id="XamEE2_Ijo0PEIDURvpw-3" value="room_name VARCHAR(255) NOT NULL UNIQUE" style="shape=partialRectangle;overflow=hidden;connectable=0;fillColor=none;align=left;strokeColor=inherit;top=0;left=0;bottom=0;right=0;spacingLeft=6;" parent="XamEE2_Ijo0PEIDURvpw-1" vertex="1">
          <mxGeometry x="30" width="480.2702702702704" height="30" as="geometry">
            <mxRectangle width="480.2702702702704" height="30" as="alternateBounds" />
          </mxGeometry>
        </mxCell>
        <mxCell id="n42r113-X6p7kZgY_KuU-35" value="" style="shape=tableRow;horizontal=0;startSize=0;swimlaneHead=0;swimlaneBody=0;fillColor=none;collapsible=0;dropTarget=0;points=[[0,0.5],[1,0.5]];portConstraint=eastwest;strokeColor=inherit;top=0;left=0;right=0;bottom=0;" parent="n42r113-X6p7kZgY_KuU-25" vertex="1">
          <mxGeometry y="180" width="510.2702702702704" height="30" as="geometry" />
        </mxCell>
        <mxCell id="n42r113-X6p7kZgY_KuU-36" value="" style="shape=partialRectangle;overflow=hidden;connectable=0;fillColor=none;strokeColor=inherit;top=0;left=0;bottom=0;right=0;" parent="n42r113-X6p7kZgY_KuU-35" vertex="1">
          <mxGeometry width="30" height="30" as="geometry">
            <mxRectangle width="30" height="30" as="alternateBounds" />
          </mxGeometry>
        </mxCell>
        <mxCell id="n42r113-X6p7kZgY_KuU-37" value="booking_date TIMESTAMP DEFAULT(CURRENT_TIMESTAMP(0)) NOT NULL" style="shape=partialRectangle;overflow=hidden;connectable=0;fillColor=none;align=left;strokeColor=inherit;top=0;left=0;bottom=0;right=0;spacingLeft=6;" parent="n42r113-X6p7kZgY_KuU-35" vertex="1">
          <mxGeometry x="30" width="480.2702702702704" height="30" as="geometry">
            <mxRectangle width="480.2702702702704" height="30" as="alternateBounds" />
          </mxGeometry>
        </mxCell>
        <mxCell id="n42r113-X6p7kZgY_KuU-38" value="" style="shape=tableRow;horizontal=0;startSize=0;swimlaneHead=0;swimlaneBody=0;fillColor=none;collapsible=0;dropTarget=0;points=[[0,0.5],[1,0.5]];portConstraint=eastwest;strokeColor=inherit;top=0;left=0;right=0;bottom=0;" parent="n42r113-X6p7kZgY_KuU-25" vertex="1">
          <mxGeometry y="210" width="510.2702702702704" height="30" as="geometry" />
        </mxCell>
        <mxCell id="n42r113-X6p7kZgY_KuU-39" value="" style="shape=partialRectangle;overflow=hidden;connectable=0;fillColor=none;strokeColor=inherit;top=0;left=0;bottom=0;right=0;" parent="n42r113-X6p7kZgY_KuU-38" vertex="1">
          <mxGeometry width="30" height="30" as="geometry">
            <mxRectangle width="30" height="30" as="alternateBounds" />
          </mxGeometry>
        </mxCell>
        <mxCell id="n42r113-X6p7kZgY_KuU-40" value="date_move_in TIMESTAMP DEFAULT(CURRENT_TIMESTAMP(0)) NOT NULL" style="shape=partialRectangle;overflow=hidden;connectable=0;fillColor=none;align=left;strokeColor=inherit;top=0;left=0;bottom=0;right=0;spacingLeft=6;" parent="n42r113-X6p7kZgY_KuU-38" vertex="1">
          <mxGeometry x="30" width="480.2702702702704" height="30" as="geometry">
            <mxRectangle width="480.2702702702704" height="30" as="alternateBounds" />
          </mxGeometry>
        </mxCell>
        <mxCell id="XamEE2_Ijo0PEIDURvpw-4" value="" style="shape=tableRow;horizontal=0;startSize=0;swimlaneHead=0;swimlaneBody=0;fillColor=none;collapsible=0;dropTarget=0;points=[[0,0.5],[1,0.5]];portConstraint=eastwest;strokeColor=inherit;top=0;left=0;right=0;bottom=0;" parent="n42r113-X6p7kZgY_KuU-25" vertex="1">
          <mxGeometry y="240" width="510.2702702702704" height="30" as="geometry" />
        </mxCell>
        <mxCell id="XamEE2_Ijo0PEIDURvpw-5" value="" style="shape=partialRectangle;overflow=hidden;connectable=0;fillColor=none;strokeColor=inherit;top=0;left=0;bottom=0;right=0;" parent="XamEE2_Ijo0PEIDURvpw-4" vertex="1">
          <mxGeometry width="30" height="30" as="geometry">
            <mxRectangle width="30" height="30" as="alternateBounds" />
          </mxGeometry>
        </mxCell>
        <mxCell id="XamEE2_Ijo0PEIDURvpw-6" value="date_move_out TIMESTAMP DEFAULT(CURRENT_TIMESTAMP(0)) NOT NULL" style="shape=partialRectangle;overflow=hidden;connectable=0;fillColor=none;align=left;strokeColor=inherit;top=0;left=0;bottom=0;right=0;spacingLeft=6;" parent="XamEE2_Ijo0PEIDURvpw-4" vertex="1">
          <mxGeometry x="30" width="480.2702702702704" height="30" as="geometry">
            <mxRectangle width="480.2702702702704" height="30" as="alternateBounds" />
          </mxGeometry>
        </mxCell>
        <mxCell id="XamEE2_Ijo0PEIDURvpw-7" value="" style="shape=tableRow;horizontal=0;startSize=0;swimlaneHead=0;swimlaneBody=0;fillColor=none;collapsible=0;dropTarget=0;points=[[0,0.5],[1,0.5]];portConstraint=eastwest;strokeColor=inherit;top=0;left=0;right=0;bottom=0;" parent="n42r113-X6p7kZgY_KuU-25" vertex="1">
          <mxGeometry y="270" width="510.2702702702704" height="30" as="geometry" />
        </mxCell>
        <mxCell id="XamEE2_Ijo0PEIDURvpw-8" value="" style="shape=partialRectangle;overflow=hidden;connectable=0;fillColor=none;strokeColor=inherit;top=0;left=0;bottom=0;right=0;" parent="XamEE2_Ijo0PEIDURvpw-7" vertex="1">
          <mxGeometry width="30" height="30" as="geometry">
            <mxRectangle width="30" height="30" as="alternateBounds" />
          </mxGeometry>
        </mxCell>
        <mxCell id="XamEE2_Ijo0PEIDURvpw-9" value="total_days FLOAT DEFAULT(0)" style="shape=partialRectangle;overflow=hidden;connectable=0;fillColor=none;align=left;strokeColor=inherit;top=0;left=0;bottom=0;right=0;spacingLeft=6;" parent="XamEE2_Ijo0PEIDURvpw-7" vertex="1">
          <mxGeometry x="30" width="480.2702702702704" height="30" as="geometry">
            <mxRectangle width="480.2702702702704" height="30" as="alternateBounds" />
          </mxGeometry>
        </mxCell>
        <mxCell id="n42r113-X6p7kZgY_KuU-41" value="" style="shape=tableRow;horizontal=0;startSize=0;swimlaneHead=0;swimlaneBody=0;fillColor=none;collapsible=0;dropTarget=0;points=[[0,0.5],[1,0.5]];portConstraint=eastwest;strokeColor=inherit;top=0;left=0;right=0;bottom=0;" parent="n42r113-X6p7kZgY_KuU-25" vertex="1">
          <mxGeometry y="300" width="510.2702702702704" height="30" as="geometry" />
        </mxCell>
        <mxCell id="n42r113-X6p7kZgY_KuU-42" value="" style="shape=partialRectangle;overflow=hidden;connectable=0;fillColor=none;strokeColor=inherit;top=0;left=0;bottom=0;right=0;" parent="n42r113-X6p7kZgY_KuU-41" vertex="1">
          <mxGeometry width="30" height="30" as="geometry">
            <mxRectangle width="30" height="30" as="alternateBounds" />
          </mxGeometry>
        </mxCell>
        <mxCell id="n42r113-X6p7kZgY_KuU-43" value="electric_number FLOAT DEFAULT(0)" style="shape=partialRectangle;overflow=hidden;connectable=0;fillColor=none;align=left;strokeColor=inherit;top=0;left=0;bottom=0;right=0;spacingLeft=6;" parent="n42r113-X6p7kZgY_KuU-41" vertex="1">
          <mxGeometry x="30" width="480.2702702702704" height="30" as="geometry">
            <mxRectangle width="480.2702702702704" height="30" as="alternateBounds" />
          </mxGeometry>
        </mxCell>
        <mxCell id="XamEE2_Ijo0PEIDURvpw-10" value="" style="shape=tableRow;horizontal=0;startSize=0;swimlaneHead=0;swimlaneBody=0;fillColor=none;collapsible=0;dropTarget=0;points=[[0,0.5],[1,0.5]];portConstraint=eastwest;strokeColor=inherit;top=0;left=0;right=0;bottom=0;" parent="n42r113-X6p7kZgY_KuU-25" vertex="1">
          <mxGeometry y="330" width="510.2702702702704" height="30" as="geometry" />
        </mxCell>
        <mxCell id="XamEE2_Ijo0PEIDURvpw-11" value="" style="shape=partialRectangle;overflow=hidden;connectable=0;fillColor=none;strokeColor=inherit;top=0;left=0;bottom=0;right=0;" parent="XamEE2_Ijo0PEIDURvpw-10" vertex="1">
          <mxGeometry width="30" height="30" as="geometry">
            <mxRectangle width="30" height="30" as="alternateBounds" />
          </mxGeometry>
        </mxCell>
        <mxCell id="XamEE2_Ijo0PEIDURvpw-12" value="electric_price FLOAT DEFAULT(0)" style="shape=partialRectangle;overflow=hidden;connectable=0;fillColor=none;align=left;strokeColor=inherit;top=0;left=0;bottom=0;right=0;spacingLeft=6;" parent="XamEE2_Ijo0PEIDURvpw-10" vertex="1">
          <mxGeometry x="30" width="480.2702702702704" height="30" as="geometry">
            <mxRectangle width="480.2702702702704" height="30" as="alternateBounds" />
          </mxGeometry>
        </mxCell>
        <mxCell id="n42r113-X6p7kZgY_KuU-44" value="" style="shape=tableRow;horizontal=0;startSize=0;swimlaneHead=0;swimlaneBody=0;fillColor=none;collapsible=0;dropTarget=0;points=[[0,0.5],[1,0.5]];portConstraint=eastwest;strokeColor=inherit;top=0;left=0;right=0;bottom=0;" parent="n42r113-X6p7kZgY_KuU-25" vertex="1">
          <mxGeometry y="360" width="510.2702702702704" height="30" as="geometry" />
        </mxCell>
        <mxCell id="n42r113-X6p7kZgY_KuU-45" value="" style="shape=partialRectangle;overflow=hidden;connectable=0;fillColor=none;strokeColor=inherit;top=0;left=0;bottom=0;right=0;" parent="n42r113-X6p7kZgY_KuU-44" vertex="1">
          <mxGeometry width="30" height="30" as="geometry">
            <mxRectangle width="30" height="30" as="alternateBounds" />
          </mxGeometry>
        </mxCell>
        <mxCell id="n42r113-X6p7kZgY_KuU-46" value="deposits FLOAT DEFAULT(0)" style="shape=partialRectangle;overflow=hidden;connectable=0;fillColor=none;align=left;strokeColor=inherit;top=0;left=0;bottom=0;right=0;spacingLeft=6;" parent="n42r113-X6p7kZgY_KuU-44" vertex="1">
          <mxGeometry x="30" width="480.2702702702704" height="30" as="geometry">
            <mxRectangle width="480.2702702702704" height="30" as="alternateBounds" />
          </mxGeometry>
        </mxCell>
        <mxCell id="n42r113-X6p7kZgY_KuU-47" value="" style="shape=tableRow;horizontal=0;startSize=0;swimlaneHead=0;swimlaneBody=0;fillColor=none;collapsible=0;dropTarget=0;points=[[0,0.5],[1,0.5]];portConstraint=eastwest;strokeColor=inherit;top=0;left=0;right=0;bottom=0;" parent="n42r113-X6p7kZgY_KuU-25" vertex="1">
          <mxGeometry y="390" width="510.2702702702704" height="30" as="geometry" />
        </mxCell>
        <mxCell id="n42r113-X6p7kZgY_KuU-48" value="" style="shape=partialRectangle;overflow=hidden;connectable=0;fillColor=none;strokeColor=inherit;top=0;left=0;bottom=0;right=0;" parent="n42r113-X6p7kZgY_KuU-47" vertex="1">
          <mxGeometry width="30" height="30" as="geometry">
            <mxRectangle width="30" height="30" as="alternateBounds" />
          </mxGeometry>
        </mxCell>
        <mxCell id="n42r113-X6p7kZgY_KuU-49" value="img_electric TEXT DEFAULT(&#39;&#39;)" style="shape=partialRectangle;overflow=hidden;connectable=0;fillColor=none;align=left;strokeColor=inherit;top=0;left=0;bottom=0;right=0;spacingLeft=6;" parent="n42r113-X6p7kZgY_KuU-47" vertex="1">
          <mxGeometry x="30" width="480.2702702702704" height="30" as="geometry">
            <mxRectangle width="480.2702702702704" height="30" as="alternateBounds" />
          </mxGeometry>
        </mxCell>
        <mxCell id="n42r113-X6p7kZgY_KuU-50" value="" style="shape=tableRow;horizontal=0;startSize=0;swimlaneHead=0;swimlaneBody=0;fillColor=none;collapsible=0;dropTarget=0;points=[[0,0.5],[1,0.5]];portConstraint=eastwest;strokeColor=inherit;top=0;left=0;right=0;bottom=0;" parent="n42r113-X6p7kZgY_KuU-25" vertex="1">
          <mxGeometry y="420" width="510.2702702702704" height="30" as="geometry" />
        </mxCell>
        <mxCell id="n42r113-X6p7kZgY_KuU-51" value="" style="shape=partialRectangle;overflow=hidden;connectable=0;fillColor=none;strokeColor=inherit;top=0;left=0;bottom=0;right=0;" parent="n42r113-X6p7kZgY_KuU-50" vertex="1">
          <mxGeometry width="30" height="30" as="geometry">
            <mxRectangle width="30" height="30" as="alternateBounds" />
          </mxGeometry>
        </mxCell>
        <mxCell id="n42r113-X6p7kZgY_KuU-52" value="img_room_rates TEXT DEFAULT(&#39;&#39;)" style="shape=partialRectangle;overflow=hidden;connectable=0;fillColor=none;align=left;strokeColor=inherit;top=0;left=0;bottom=0;right=0;spacingLeft=6;" parent="n42r113-X6p7kZgY_KuU-50" vertex="1">
          <mxGeometry x="30" width="480.2702702702704" height="30" as="geometry">
            <mxRectangle width="480.2702702702704" height="30" as="alternateBounds" />
          </mxGeometry>
        </mxCell>
        <mxCell id="n42r113-X6p7kZgY_KuU-53" value="" style="shape=tableRow;horizontal=0;startSize=0;swimlaneHead=0;swimlaneBody=0;fillColor=none;collapsible=0;dropTarget=0;points=[[0,0.5],[1,0.5]];portConstraint=eastwest;strokeColor=inherit;top=0;left=0;right=0;bottom=0;" parent="n42r113-X6p7kZgY_KuU-25" vertex="1">
          <mxGeometry y="450" width="510.2702702702704" height="30" as="geometry" />
        </mxCell>
        <mxCell id="n42r113-X6p7kZgY_KuU-54" value="" style="shape=partialRectangle;overflow=hidden;connectable=0;fillColor=none;strokeColor=inherit;top=0;left=0;bottom=0;right=0;" parent="n42r113-X6p7kZgY_KuU-53" vertex="1">
          <mxGeometry width="30" height="30" as="geometry">
            <mxRectangle width="30" height="30" as="alternateBounds" />
          </mxGeometry>
        </mxCell>
        <mxCell id="n42r113-X6p7kZgY_KuU-55" value="img_water TEXT DEFAULT(&#39;&#39;)" style="shape=partialRectangle;overflow=hidden;connectable=0;fillColor=none;align=left;strokeColor=inherit;top=0;left=0;bottom=0;right=0;spacingLeft=6;" parent="n42r113-X6p7kZgY_KuU-53" vertex="1">
          <mxGeometry x="30" width="480.2702702702704" height="30" as="geometry">
            <mxRectangle width="480.2702702702704" height="30" as="alternateBounds" />
          </mxGeometry>
        </mxCell>
        <mxCell id="n42r113-X6p7kZgY_KuU-56" value="" style="shape=tableRow;horizontal=0;startSize=0;swimlaneHead=0;swimlaneBody=0;fillColor=none;collapsible=0;dropTarget=0;points=[[0,0.5],[1,0.5]];portConstraint=eastwest;strokeColor=inherit;top=0;left=0;right=0;bottom=0;" parent="n42r113-X6p7kZgY_KuU-25" vertex="1">
          <mxGeometry y="480" width="510.2702702702704" height="30" as="geometry" />
        </mxCell>
        <mxCell id="n42r113-X6p7kZgY_KuU-57" value="" style="shape=partialRectangle;overflow=hidden;connectable=0;fillColor=none;strokeColor=inherit;top=0;left=0;bottom=0;right=0;" parent="n42r113-X6p7kZgY_KuU-56" vertex="1">
          <mxGeometry width="30" height="30" as="geometry">
            <mxRectangle width="30" height="30" as="alternateBounds" />
          </mxGeometry>
        </mxCell>
        <mxCell id="n42r113-X6p7kZgY_KuU-58" value="junk_money FLOAT DEFAULT(0)" style="shape=partialRectangle;overflow=hidden;connectable=0;fillColor=none;align=left;strokeColor=inherit;top=0;left=0;bottom=0;right=0;spacingLeft=6;" parent="n42r113-X6p7kZgY_KuU-56" vertex="1">
          <mxGeometry x="30" width="480.2702702702704" height="30" as="geometry">
            <mxRectangle width="480.2702702702704" height="30" as="alternateBounds" />
          </mxGeometry>
        </mxCell>
        <mxCell id="n42r113-X6p7kZgY_KuU-59" value="" style="shape=tableRow;horizontal=0;startSize=0;swimlaneHead=0;swimlaneBody=0;fillColor=none;collapsible=0;dropTarget=0;points=[[0,0.5],[1,0.5]];portConstraint=eastwest;strokeColor=inherit;top=0;left=0;right=0;bottom=0;" parent="n42r113-X6p7kZgY_KuU-25" vertex="1">
          <mxGeometry y="510" width="510.2702702702704" height="30" as="geometry" />
        </mxCell>
        <mxCell id="n42r113-X6p7kZgY_KuU-60" value="" style="shape=partialRectangle;overflow=hidden;connectable=0;fillColor=none;strokeColor=inherit;top=0;left=0;bottom=0;right=0;" parent="n42r113-X6p7kZgY_KuU-59" vertex="1">
          <mxGeometry width="30" height="30" as="geometry">
            <mxRectangle width="30" height="30" as="alternateBounds" />
          </mxGeometry>
        </mxCell>
        <mxCell id="n42r113-X6p7kZgY_KuU-61" value="num_of_member INT DEFAULT(0)" style="shape=partialRectangle;overflow=hidden;connectable=0;fillColor=none;align=left;strokeColor=inherit;top=0;left=0;bottom=0;right=0;spacingLeft=6;" parent="n42r113-X6p7kZgY_KuU-59" vertex="1">
          <mxGeometry x="30" width="480.2702702702704" height="30" as="geometry">
            <mxRectangle width="480.2702702702704" height="30" as="alternateBounds" />
          </mxGeometry>
        </mxCell>
        <mxCell id="n42r113-X6p7kZgY_KuU-62" value="" style="shape=tableRow;horizontal=0;startSize=0;swimlaneHead=0;swimlaneBody=0;fillColor=none;collapsible=0;dropTarget=0;points=[[0,0.5],[1,0.5]];portConstraint=eastwest;strokeColor=inherit;top=0;left=0;right=0;bottom=0;" parent="n42r113-X6p7kZgY_KuU-25" vertex="1">
          <mxGeometry y="540" width="510.2702702702704" height="30" as="geometry" />
        </mxCell>
        <mxCell id="n42r113-X6p7kZgY_KuU-63" value="" style="shape=partialRectangle;overflow=hidden;connectable=0;fillColor=none;strokeColor=inherit;top=0;left=0;bottom=0;right=0;" parent="n42r113-X6p7kZgY_KuU-62" vertex="1">
          <mxGeometry width="30" height="30" as="geometry">
            <mxRectangle width="30" height="30" as="alternateBounds" />
          </mxGeometry>
        </mxCell>
        <mxCell id="n42r113-X6p7kZgY_KuU-64" value="room_rates FLOAT DEFAULT(0)" style="shape=partialRectangle;overflow=hidden;connectable=0;fillColor=none;align=left;strokeColor=inherit;top=0;left=0;bottom=0;right=0;spacingLeft=6;" parent="n42r113-X6p7kZgY_KuU-62" vertex="1">
          <mxGeometry x="30" width="480.2702702702704" height="30" as="geometry">
            <mxRectangle width="480.2702702702704" height="30" as="alternateBounds" />
          </mxGeometry>
        </mxCell>
        <mxCell id="n42r113-X6p7kZgY_KuU-65" value="" style="shape=tableRow;horizontal=0;startSize=0;swimlaneHead=0;swimlaneBody=0;fillColor=none;collapsible=0;dropTarget=0;points=[[0,0.5],[1,0.5]];portConstraint=eastwest;strokeColor=inherit;top=0;left=0;right=0;bottom=0;" parent="n42r113-X6p7kZgY_KuU-25" vertex="1">
          <mxGeometry y="570" width="510.2702702702704" height="30" as="geometry" />
        </mxCell>
        <mxCell id="n42r113-X6p7kZgY_KuU-66" value="" style="shape=partialRectangle;overflow=hidden;connectable=0;fillColor=none;strokeColor=inherit;top=0;left=0;bottom=0;right=0;" parent="n42r113-X6p7kZgY_KuU-65" vertex="1">
          <mxGeometry width="30" height="30" as="geometry">
            <mxRectangle width="30" height="30" as="alternateBounds" />
          </mxGeometry>
        </mxCell>
        <mxCell id="n42r113-X6p7kZgY_KuU-67" value="water_number FLOAT DEFAULT(0)" style="shape=partialRectangle;overflow=hidden;connectable=0;fillColor=none;align=left;strokeColor=inherit;top=0;left=0;bottom=0;right=0;spacingLeft=6;" parent="n42r113-X6p7kZgY_KuU-65" vertex="1">
          <mxGeometry x="30" width="480.2702702702704" height="30" as="geometry">
            <mxRectangle width="480.2702702702704" height="30" as="alternateBounds" />
          </mxGeometry>
        </mxCell>
        <mxCell id="XamEE2_Ijo0PEIDURvpw-13" value="" style="shape=tableRow;horizontal=0;startSize=0;swimlaneHead=0;swimlaneBody=0;fillColor=none;collapsible=0;dropTarget=0;points=[[0,0.5],[1,0.5]];portConstraint=eastwest;strokeColor=inherit;top=0;left=0;right=0;bottom=0;" parent="n42r113-X6p7kZgY_KuU-25" vertex="1">
          <mxGeometry y="600" width="510.2702702702704" height="30" as="geometry" />
        </mxCell>
        <mxCell id="XamEE2_Ijo0PEIDURvpw-14" value="" style="shape=partialRectangle;overflow=hidden;connectable=0;fillColor=none;strokeColor=inherit;top=0;left=0;bottom=0;right=0;" parent="XamEE2_Ijo0PEIDURvpw-13" vertex="1">
          <mxGeometry width="30" height="30" as="geometry">
            <mxRectangle width="30" height="30" as="alternateBounds" />
          </mxGeometry>
        </mxCell>
        <mxCell id="XamEE2_Ijo0PEIDURvpw-15" value="water_price FLOAT DEFAULT(0)" style="shape=partialRectangle;overflow=hidden;connectable=0;fillColor=none;align=left;strokeColor=inherit;top=0;left=0;bottom=0;right=0;spacingLeft=6;" parent="XamEE2_Ijo0PEIDURvpw-13" vertex="1">
          <mxGeometry x="30" width="480.2702702702704" height="30" as="geometry">
            <mxRectangle width="480.2702702702704" height="30" as="alternateBounds" />
          </mxGeometry>
        </mxCell>
        <mxCell id="RQugcnWNFCN3xo5n-kTe-1" value="bill" style="shape=table;startSize=50;container=1;collapsible=1;childLayout=tableLayout;fixedRows=1;rowLines=0;fontStyle=1;align=center;resizeLast=1;" parent="C5GUmwxqGNt791xSB7eS-11" vertex="1">
          <mxGeometry width="510.2702702702703" height="260" as="geometry" />
        </mxCell>
        <mxCell id="RQugcnWNFCN3xo5n-kTe-2" value="" style="shape=tableRow;horizontal=0;startSize=0;swimlaneHead=0;swimlaneBody=0;fillColor=none;collapsible=0;dropTarget=0;points=[[0,0.5],[1,0.5]];portConstraint=eastwest;strokeColor=inherit;top=0;left=0;right=0;bottom=1;" parent="RQugcnWNFCN3xo5n-kTe-1" vertex="1">
          <mxGeometry y="50" width="510.2702702702703" height="30" as="geometry" />
        </mxCell>
        <mxCell id="RQugcnWNFCN3xo5n-kTe-3" value="PK" style="shape=partialRectangle;overflow=hidden;connectable=0;fillColor=none;strokeColor=inherit;top=0;left=0;bottom=0;right=0;fontStyle=1;" parent="RQugcnWNFCN3xo5n-kTe-2" vertex="1">
          <mxGeometry width="30" height="30" as="geometry">
            <mxRectangle width="30" height="30" as="alternateBounds" />
          </mxGeometry>
        </mxCell>
        <mxCell id="RQugcnWNFCN3xo5n-kTe-4" value="bill_id INT  GENERATED ALWAYS AS IDENTITY" style="shape=partialRectangle;overflow=hidden;connectable=0;fillColor=none;align=left;strokeColor=inherit;top=0;left=0;bottom=0;right=0;spacingLeft=6;fontStyle=5;" parent="RQugcnWNFCN3xo5n-kTe-2" vertex="1">
          <mxGeometry x="30" width="480.2702702702703" height="30" as="geometry">
            <mxRectangle width="480.2702702702703" height="30" as="alternateBounds" />
          </mxGeometry>
        </mxCell>
        <mxCell id="RQugcnWNFCN3xo5n-kTe-5" value="" style="shape=tableRow;horizontal=0;startSize=0;swimlaneHead=0;swimlaneBody=0;fillColor=none;collapsible=0;dropTarget=0;points=[[0,0.5],[1,0.5]];portConstraint=eastwest;strokeColor=inherit;top=0;left=0;right=0;bottom=1;" parent="RQugcnWNFCN3xo5n-kTe-1" vertex="1">
          <mxGeometry y="80" width="510.2702702702703" height="30" as="geometry" />
        </mxCell>
        <mxCell id="RQugcnWNFCN3xo5n-kTe-6" value="FK" style="shape=partialRectangle;overflow=hidden;connectable=0;fillColor=none;strokeColor=inherit;top=0;left=0;bottom=0;right=0;fontStyle=0;" parent="RQugcnWNFCN3xo5n-kTe-5" vertex="1">
          <mxGeometry width="30" height="30" as="geometry">
            <mxRectangle width="30" height="30" as="alternateBounds" />
          </mxGeometry>
        </mxCell>
        <mxCell id="RQugcnWNFCN3xo5n-kTe-7" value="account_id INT NULL REFERENCES account(account_id)" style="shape=partialRectangle;overflow=hidden;connectable=0;fillColor=none;align=left;strokeColor=inherit;top=0;left=0;bottom=0;right=0;spacingLeft=6;fontStyle=0;" parent="RQugcnWNFCN3xo5n-kTe-5" vertex="1">
          <mxGeometry x="30" width="480.2702702702703" height="30" as="geometry">
            <mxRectangle width="480.2702702702703" height="30" as="alternateBounds" />
          </mxGeometry>
        </mxCell>
        <mxCell id="RQugcnWNFCN3xo5n-kTe-23" value="" style="shape=tableRow;horizontal=0;startSize=0;swimlaneHead=0;swimlaneBody=0;fillColor=none;collapsible=0;dropTarget=0;points=[[0,0.5],[1,0.5]];portConstraint=eastwest;strokeColor=inherit;top=0;left=0;right=0;bottom=1;" parent="RQugcnWNFCN3xo5n-kTe-1" vertex="1">
          <mxGeometry y="110" width="510.2702702702703" height="30" as="geometry" />
        </mxCell>
        <mxCell id="RQugcnWNFCN3xo5n-kTe-24" value="FK" style="shape=partialRectangle;overflow=hidden;connectable=0;fillColor=none;strokeColor=inherit;top=0;left=0;bottom=0;right=0;fontStyle=0;" parent="RQugcnWNFCN3xo5n-kTe-23" vertex="1">
          <mxGeometry width="30" height="30" as="geometry">
            <mxRectangle width="30" height="30" as="alternateBounds" />
          </mxGeometry>
        </mxCell>
        <mxCell id="RQugcnWNFCN3xo5n-kTe-25" value="room_id INT NOT NULL REFERENCES room (room_id)" style="shape=partialRectangle;overflow=hidden;connectable=0;fillColor=none;align=left;strokeColor=inherit;top=0;left=0;bottom=0;right=0;spacingLeft=6;fontStyle=0;" parent="RQugcnWNFCN3xo5n-kTe-23" vertex="1">
          <mxGeometry x="30" width="480.2702702702703" height="30" as="geometry">
            <mxRectangle width="480.2702702702703" height="30" as="alternateBounds" />
          </mxGeometry>
        </mxCell>
        <mxCell id="RQugcnWNFCN3xo5n-kTe-8" value="" style="shape=tableRow;horizontal=0;startSize=0;swimlaneHead=0;swimlaneBody=0;fillColor=none;collapsible=0;dropTarget=0;points=[[0,0.5],[1,0.5]];portConstraint=eastwest;strokeColor=inherit;top=0;left=0;right=0;bottom=0;" parent="RQugcnWNFCN3xo5n-kTe-1" vertex="1">
          <mxGeometry y="140" width="510.2702702702703" height="30" as="geometry" />
        </mxCell>
        <mxCell id="RQugcnWNFCN3xo5n-kTe-9" value="" style="shape=partialRectangle;overflow=hidden;connectable=0;fillColor=none;strokeColor=inherit;top=0;left=0;bottom=0;right=0;" parent="RQugcnWNFCN3xo5n-kTe-8" vertex="1">
          <mxGeometry width="30" height="30" as="geometry">
            <mxRectangle width="30" height="30" as="alternateBounds" />
          </mxGeometry>
        </mxCell>
        <mxCell id="RQugcnWNFCN3xo5n-kTe-10" value="created_date TIMESTAMP DEFAULT(CURRENT_TIMESTAMP(0)) NOT NULL" style="shape=partialRectangle;overflow=hidden;connectable=0;fillColor=none;align=left;strokeColor=inherit;top=0;left=0;bottom=0;right=0;spacingLeft=6;" parent="RQugcnWNFCN3xo5n-kTe-8" vertex="1">
          <mxGeometry x="30" width="480.2702702702703" height="30" as="geometry">
            <mxRectangle width="480.2702702702703" height="30" as="alternateBounds" />
          </mxGeometry>
        </mxCell>
        <mxCell id="RQugcnWNFCN3xo5n-kTe-11" value="" style="shape=tableRow;horizontal=0;startSize=0;swimlaneHead=0;swimlaneBody=0;fillColor=none;collapsible=0;dropTarget=0;points=[[0,0.5],[1,0.5]];portConstraint=eastwest;strokeColor=inherit;top=0;left=0;right=0;bottom=0;" parent="RQugcnWNFCN3xo5n-kTe-1" vertex="1">
          <mxGeometry y="170" width="510.2702702702703" height="30" as="geometry" />
        </mxCell>
        <mxCell id="RQugcnWNFCN3xo5n-kTe-12" value="" style="shape=partialRectangle;overflow=hidden;connectable=0;fillColor=none;strokeColor=inherit;top=0;left=0;bottom=0;right=0;" parent="RQugcnWNFCN3xo5n-kTe-11" vertex="1">
          <mxGeometry width="30" height="30" as="geometry">
            <mxRectangle width="30" height="30" as="alternateBounds" />
          </mxGeometry>
        </mxCell>
        <mxCell id="RQugcnWNFCN3xo5n-kTe-13" value="total_payment FLOAT DEFAULT(1000000) NOT NULL" style="shape=partialRectangle;overflow=hidden;connectable=0;fillColor=none;align=left;strokeColor=inherit;top=0;left=0;bottom=0;right=0;spacingLeft=6;" parent="RQugcnWNFCN3xo5n-kTe-11" vertex="1">
          <mxGeometry x="30" width="480.2702702702703" height="30" as="geometry">
            <mxRectangle width="480.2702702702703" height="30" as="alternateBounds" />
          </mxGeometry>
        </mxCell>
        <mxCell id="RQugcnWNFCN3xo5n-kTe-14" value="" style="shape=tableRow;horizontal=0;startSize=0;swimlaneHead=0;swimlaneBody=0;fillColor=none;collapsible=0;dropTarget=0;points=[[0,0.5],[1,0.5]];portConstraint=eastwest;strokeColor=inherit;top=0;left=0;right=0;bottom=0;" parent="RQugcnWNFCN3xo5n-kTe-1" vertex="1">
          <mxGeometry y="200" width="510.2702702702703" height="30" as="geometry" />
        </mxCell>
        <mxCell id="RQugcnWNFCN3xo5n-kTe-15" value="" style="shape=partialRectangle;overflow=hidden;connectable=0;fillColor=none;strokeColor=inherit;top=0;left=0;bottom=0;right=0;" parent="RQugcnWNFCN3xo5n-kTe-14" vertex="1">
          <mxGeometry width="30" height="30" as="geometry">
            <mxRectangle width="30" height="30" as="alternateBounds" />
          </mxGeometry>
        </mxCell>
        <mxCell id="RQugcnWNFCN3xo5n-kTe-16" value="img_total_payment TEXT DEFAULT(&#39;&#39;) NULL" style="shape=partialRectangle;overflow=hidden;connectable=0;fillColor=none;align=left;strokeColor=inherit;top=0;left=0;bottom=0;right=0;spacingLeft=6;" parent="RQugcnWNFCN3xo5n-kTe-14" vertex="1">
          <mxGeometry x="30" width="480.2702702702703" height="30" as="geometry">
            <mxRectangle width="480.2702702702703" height="30" as="alternateBounds" />
          </mxGeometry>
        </mxCell>
        <mxCell id="RQugcnWNFCN3xo5n-kTe-33" value="" style="shape=tableRow;horizontal=0;startSize=0;swimlaneHead=0;swimlaneBody=0;fillColor=none;collapsible=0;dropTarget=0;points=[[0,0.5],[1,0.5]];portConstraint=eastwest;strokeColor=inherit;top=0;left=0;right=0;bottom=0;" parent="RQugcnWNFCN3xo5n-kTe-1" vertex="1">
          <mxGeometry y="230" width="510.2702702702703" height="30" as="geometry" />
        </mxCell>
        <mxCell id="RQugcnWNFCN3xo5n-kTe-34" value="" style="shape=partialRectangle;overflow=hidden;connectable=0;fillColor=none;strokeColor=inherit;top=0;left=0;bottom=0;right=0;" parent="RQugcnWNFCN3xo5n-kTe-33" vertex="1">
          <mxGeometry width="30" height="30" as="geometry">
            <mxRectangle width="30" height="30" as="alternateBounds" />
          </mxGeometry>
        </mxCell>
        <mxCell id="RQugcnWNFCN3xo5n-kTe-35" value="note TEXT DEFAULT(&#39;&#39;) NULL" style="shape=partialRectangle;overflow=hidden;connectable=0;fillColor=none;align=left;strokeColor=inherit;top=0;left=0;bottom=0;right=0;spacingLeft=6;" parent="RQugcnWNFCN3xo5n-kTe-33" vertex="1">
          <mxGeometry x="30" width="480.2702702702703" height="30" as="geometry">
            <mxRectangle width="480.2702702702703" height="30" as="alternateBounds" />
          </mxGeometry>
        </mxCell>
        <mxCell id="RQugcnWNFCN3xo5n-kTe-36" style="edgeStyle=orthogonalEdgeStyle;rounded=0;orthogonalLoop=1;jettySize=auto;html=1;exitX=1;exitY=0.5;exitDx=0;exitDy=0;entryX=1;entryY=0.5;entryDx=0;entryDy=0;startArrow=ERone;startFill=0;endArrow=ERoneToMany;endFill=0;" parent="C5GUmwxqGNt791xSB7eS-11" source="RQugcnWNFCN3xo5n-kTe-23" target="n42r113-X6p7kZgY_KuU-29" edge="1">
          <mxGeometry relative="1" as="geometry">
            <Array as="points">
              <mxPoint x="590" y="125" />
              <mxPoint x="590" y="365" />
            </Array>
          </mxGeometry>
        </mxCell>
      </root>
    </mxGraphModel>
  </diagram>
  <diagram id="K8qf7ki2oSyHZUkjDUUC" name="use case">
    <mxGraphModel dx="1434" dy="843" grid="1" gridSize="10" guides="1" tooltips="1" connect="1" arrows="1" fold="1" page="1" pageScale="1" pageWidth="850" pageHeight="1100" math="0" shadow="0">
      <root>
        <mxCell id="0" />
        <mxCell id="1" parent="0" />
        <mxCell id="Y2pEZGvi-nTDUDUaqsTP-1" value="Show Info" style="ellipse;whiteSpace=wrap;html=1;" parent="1" vertex="1">
          <mxGeometry x="330" y="200" width="140" height="70" as="geometry" />
        </mxCell>
        <mxCell id="Y2pEZGvi-nTDUDUaqsTP-2" value="Actor" style="shape=umlActor;verticalLabelPosition=bottom;verticalAlign=top;html=1;" parent="1" vertex="1">
          <mxGeometry x="210" y="320" width="30" height="60" as="geometry" />
        </mxCell>
        <mxCell id="Y2pEZGvi-nTDUDUaqsTP-5" value="&lt;span style=&quot;font-weight: normal;&quot;&gt;Book room&lt;/span&gt;" style="ellipse;whiteSpace=wrap;html=1;fontStyle=1" parent="1" vertex="1">
          <mxGeometry x="330" y="320" width="140" height="70" as="geometry" />
        </mxCell>
        <mxCell id="Y2pEZGvi-nTDUDUaqsTP-6" value="Payment" style="ellipse;whiteSpace=wrap;html=1;" parent="1" vertex="1">
          <mxGeometry x="330" y="430" width="140" height="70" as="geometry" />
        </mxCell>
        <mxCell id="Y2pEZGvi-nTDUDUaqsTP-7" value="&lt;span style=&quot;font-weight: normal;&quot;&gt;Manger room&lt;/span&gt;" style="ellipse;whiteSpace=wrap;html=1;fontStyle=1" parent="1" vertex="1">
          <mxGeometry x="355" y="650" width="140" height="70" as="geometry" />
        </mxCell>
        <mxCell id="Y2pEZGvi-nTDUDUaqsTP-8" value="&lt;span style=&quot;font-weight: normal;&quot;&gt;Manged room&lt;/span&gt;" style="ellipse;whiteSpace=wrap;html=1;fontStyle=1" parent="1" vertex="1">
          <mxGeometry x="350" y="770" width="140" height="70" as="geometry" />
        </mxCell>
        <mxCell id="Y2pEZGvi-nTDUDUaqsTP-9" value="&lt;span style=&quot;font-weight: normal;&quot;&gt;Manged room&lt;/span&gt;" style="ellipse;whiteSpace=wrap;html=1;fontStyle=1" parent="1" vertex="1">
          <mxGeometry x="550" y="790" width="140" height="70" as="geometry" />
        </mxCell>
        <mxCell id="FmYD5w29mLj4ikZ1oHsH-8" style="edgeStyle=orthogonalEdgeStyle;rounded=0;orthogonalLoop=1;jettySize=auto;html=1;" parent="1" source="FmYD5w29mLj4ikZ1oHsH-1" target="FmYD5w29mLj4ikZ1oHsH-2" edge="1">
          <mxGeometry relative="1" as="geometry" />
        </mxCell>
        <mxCell id="FmYD5w29mLj4ikZ1oHsH-1" value="main" style="rounded=0;whiteSpace=wrap;html=1;" parent="1" vertex="1">
          <mxGeometry x="160" y="1160" width="120" height="60" as="geometry" />
        </mxCell>
        <mxCell id="FmYD5w29mLj4ikZ1oHsH-9" style="edgeStyle=orthogonalEdgeStyle;rounded=0;orthogonalLoop=1;jettySize=auto;html=1;entryX=0;entryY=0.5;entryDx=0;entryDy=0;" parent="1" source="FmYD5w29mLj4ikZ1oHsH-2" target="FmYD5w29mLj4ikZ1oHsH-3" edge="1">
          <mxGeometry relative="1" as="geometry" />
        </mxCell>
        <mxCell id="FmYD5w29mLj4ikZ1oHsH-2" value="controller" style="rounded=0;whiteSpace=wrap;html=1;" parent="1" vertex="1">
          <mxGeometry x="410" y="1160" width="120" height="60" as="geometry" />
        </mxCell>
        <mxCell id="FmYD5w29mLj4ikZ1oHsH-18" style="edgeStyle=orthogonalEdgeStyle;shape=flexArrow;rounded=0;orthogonalLoop=1;jettySize=auto;html=1;exitX=1;exitY=0.5;exitDx=0;exitDy=0;entryX=0;entryY=0.5;entryDx=0;entryDy=0;" parent="1" source="FmYD5w29mLj4ikZ1oHsH-3" target="FmYD5w29mLj4ikZ1oHsH-10" edge="1">
          <mxGeometry relative="1" as="geometry" />
        </mxCell>
        <mxCell id="FmYD5w29mLj4ikZ1oHsH-3" value="service" style="rounded=0;whiteSpace=wrap;html=1;" parent="1" vertex="1">
          <mxGeometry x="610" y="1160" width="120" height="60" as="geometry" />
        </mxCell>
        <mxCell id="FmYD5w29mLj4ikZ1oHsH-4" value="model" style="rounded=0;whiteSpace=wrap;html=1;" parent="1" vertex="1">
          <mxGeometry x="640" y="920" width="120" height="60" as="geometry" />
        </mxCell>
        <mxCell id="FmYD5w29mLj4ikZ1oHsH-5" value="database local" style="rounded=0;whiteSpace=wrap;html=1;" parent="1" vertex="1">
          <mxGeometry x="1050" y="1150" width="120" height="60" as="geometry" />
        </mxCell>
        <mxCell id="FmYD5w29mLj4ikZ1oHsH-10" value="responsitory" style="rounded=0;whiteSpace=wrap;html=1;" parent="1" vertex="1">
          <mxGeometry x="830" y="1160" width="120" height="60" as="geometry" />
        </mxCell>
        <mxCell id="FmYD5w29mLj4ikZ1oHsH-11" value="network" style="rounded=0;whiteSpace=wrap;html=1;" parent="1" vertex="1">
          <mxGeometry x="1050" y="1020" width="120" height="50" as="geometry" />
        </mxCell>
        <mxCell id="FmYD5w29mLj4ikZ1oHsH-12" value="cloud" style="rounded=0;whiteSpace=wrap;html=1;" parent="1" vertex="1">
          <mxGeometry x="1050" y="1330" width="120" height="50" as="geometry" />
        </mxCell>
        <mxCell id="FmYD5w29mLj4ikZ1oHsH-13" value="apiLogin" style="text;html=1;strokeColor=none;fillColor=none;align=center;verticalAlign=middle;whiteSpace=wrap;rounded=0;" parent="1" vertex="1">
          <mxGeometry x="270" y="1130" width="140" height="30" as="geometry" />
        </mxCell>
        <mxCell id="FmYD5w29mLj4ikZ1oHsH-16" value="FetchAllAccount()&lt;br&gt;FetchAllRoom()" style="text;html=1;strokeColor=none;fillColor=none;align=center;verticalAlign=middle;whiteSpace=wrap;rounded=0;" parent="1" vertex="1">
          <mxGeometry x="820" y="1030" width="140" height="120" as="geometry" />
        </mxCell>
      </root>
    </mxGraphModel>
  </diagram>
</mxfile>
